<svg xmlns="http://www.w3.org/2000/svg" viewBox="0 0 24 24" fill="currentColor"><path d="M17.128 0a10.134 10.134 0 0 0-2.755.403l-.063.02a10.922 10.922 0 0 0-1.674-.127C11.164.197 9.9.728 8.965 1.4 8.177.96 6.815.538 5.323.782 3.472 1.09 2.1 2.358 1.563 4.287.857 6.86 1.485 9.89 2.56 12.55c.59 1.467 1.374 2.785 2.389 3.426.262.166.559.268.863.3.265.003.53-.053.772-.165l.07-.04c.628.43 1.385.724 2.214.843l.162.015c-.07.362-.084.741-.04 1.118.103.802.472 1.52 1.04 2.024-.153.42-.232.862-.232 1.31a3.39 3.39 0 0 0 .232 1.23c.236.64.697 1.078 1.226 1.34.518.258 1.08.37 1.63.403h.156c1.398 0 2.484-.754 2.86-2.018.227-.765.163-1.406.043-2.1l-.05-.265c.383-.312.663-.823.837-1.263l.066-.196c.056.01.112.017.17.022 1.016.09 1.97-.397 2.594-1.25.774-1.06 1.22-2.62 1.204-4.53-.01-.51-.074-.95-.19-1.36l.026-.022.184-.194c.566-.63.87-1.44.834-2.273-.056-1.28-.735-2.376-1.793-3.073-.478-.315-1.005-.53-1.557-.637zm-.22 1.403c.39.066.76.2 1.095.403.762.462 1.222 1.227 1.262 2.103a2.21 2.21 0 0 1-.476 1.455l-.27.29a7.94 7.94 0 0 0-1.085-.35l-.296-.067-.093.283c-.226.696-.322 1.38-.41 2.063l-.044.35c-.076.637-.11 1.285-.107 1.93 0 .91-.178 1.637-.387 2.252-.2.59-.448 1.073-.71 1.6-.1.2-.2.41-.31.65l-.09.21c-.13.33-.29.76-.2 1.08.09.32.19.63.29.94.24.78.41 1.41.23 2.01-.27.91-.99 1.29-1.92 1.29h-.12c-.42-.03-.87-.12-1.25-.31-.38-.19-.66-.46-.79-.82a2.29 2.29 0 0 1-.15-.84c0-.51.13-.99.38-1.42l.12-.19-.18-.14c-.62-.46-.92-1.16-1-1.87a3.3 3.3 0 0 1 .09-1.2l.04-.15-.15-.04c-.84-.18-1.58-.5-2.12-.94l-.15-.12-.12.15c-.24.32-.54.5-.88.56-.28.05-.48-.03-.66-.14-.67-.41-1.38-1.6-1.93-2.98C2.71 9.7 2.1 6.84 2.73 4.57c.42-1.5 1.43-2.47 2.87-2.7 1.33-.22 2.59.22 3.14.46l.26.12.22-.18c.8-.67 1.88-1.18 3.39-1.08.4.02.78.08 1.14.18l.07.02c.48-.14.97-.27 1.51-.36zM10 9.3c-.7.04-1.39.47-1.62 1.24-.32 1.06.28 2.18 1.34 2.5.24.07.49.1.73.07.7-.04 1.39-.47 1.62-1.24.32-1.06-.28-2.18-1.34-2.5a1.83 1.83 0 0 0-.73-.07zm5.02.35c-.63.06-1.2.44-1.4 1.1-.27.94.25 1.93 1.18 2.2.21.06.43.08.64.06.63-.06 1.2-.44 1.4-1.1.27-.94-.25-1.93-1.18-2.2a1.6 1.6 0 0 0-.64-.06z"/></svg>
