<svg xmlns="http://www.w3.org/2000/svg" viewBox="0 0 24 24" fill="currentColor"><path d="M14.23 12.004a2.236 2.236 0 0 1-2.235 2.236 2.236 2.236 0 0 1-2.236-2.236 2.236 2.236 0 0 1 2.235-2.236 2.236 2.236 0 0 1 2.236 2.236zm2.648-10.69c-1.346 0-3.107.96-4.888 2.622-1.78-1.653-3.542-2.602-4.887-2.602-.31 0-.6.045-.87.13C3.23 2.24 2.16 5.12 2.97 8.72c-2.11 1.33-3.47 2.96-3.47 4.28 0 3.18 5.13 5.27 11.5 5.27s11.5-2.09 11.5-5.27c0-1.32-1.36-2.95-3.47-4.28.81-3.6-.26-6.48-3.26-7.27a2.77 2.77 0 0 0-.87-.12zM12 17.27c-4.95 0-9-1.68-9-3.27 0-.69.83-1.59 2.3-2.35.56 1.43 1.34 2.83 2.33 4.04.54.66 1.12 1.27 1.73 1.81.63-.54 1.2-1.15 1.73-1.81.99-1.21 1.77-2.61 2.33-4.04 1.47.76 2.3 1.66 2.3 2.35 0 1.59-4.05 3.27-9 3.27z"/></svg>
