<svg xmlns="http://www.w3.org/2000/svg" viewBox="0 0 24 24" fill="currentColor"><path d="M18.29 4.24h-3.84c-.37 0-.67.3-.67.67v3.84c0 .37.3.67.67.67h3.84c.37 0 .67-.3.67-.67V4.91c0-.37-.3-.67-.67-.67zM12.75 9.78H8.91c-.37 0-.67.3-.67.67v3.84c0 .37.3.67.67.67h3.84c.37 0 .67-.3.67-.67v-3.84c0-.37-.3-.67-.67-.67zm5.54 0h-3.84c-.37 0-.67.3-.67.67v3.84c0 .37.3.67.67.67h3.84c.37 0 .67-.3.67-.67v-3.84c0-.37-.3-.67-.67-.67zm0 5.54h-3.84c-.37 0-.67.3-.67.67v3.84c0 .37.3.67.67.67h3.84c.37 0 .67-.3.67-.67v-3.84c0-.37-.3-.67-.67-.67zm-5.54 0H8.91c-.37 0-.67.3-.67.67v3.84c0 .37.3.67.67.67h3.84c.37 0 .67-.3.67-.67v-3.84c0-.37-.3-.67-.67-.67z"/></svg>
