<svg xmlns="http://www.w3.org/2000/svg" viewBox="0 0 24 24" fill="currentColor"><path d="M1.125 0C.502 0 0 .502 0 1.125v21.75C0 23.498.502 24 1.125 24h21.75c.623 0 1.125-.502 1.125-1.125V1.125C24 .502 23.498 0 22.875 0zm11.539 9.563h4.148v1.476h-2.55v7.586h-1.723v-7.586h-1.875zm5.274.018c.508 0 .97.07 1.383.21.414.14.764.345 1.05.614.287.27.508.6.664.993.156.39.234.84.234 1.347l-.005.18-.01.171h-1.62c0-.61-.12-1.065-.36-1.365-.24-.3-.617-.45-1.13-.45-.326 0-.59.054-.793.164-.203.11-.297.29-.297.54 0 .186.08.35.242.488.16.14.376.264.645.375.27.11.572.22.907.328.465.15.887.32 1.266.51.38.19.68.44.9.75.22.31.328.734.328 1.27 0 .48-.097.892-.29 1.237-.194.344-.484.618-.872.82-.388.203-.867.305-1.437.305-.57 0-1.065-.09-1.485-.27a2.46 2.46 0 0 1-.99-.78c-.247-.34-.396-.754-.45-1.245l-.01-.16h1.665c.007.347.074.627.2.84.125.214.3.37.523.47.223.1.486.148.79.148.34 0 .617-.063.83-.19.214-.128.32-.323.32-.586 0-.2-.08-.37-.24-.51a2.3 2.3 0 0 0-.65-.383 11.3 11.3 0 0 0-.93-.34 6.2 6.2 0 0 1-1.2-.5 2.26 2.26 0 0 1-.84-.73c-.21-.31-.316-.71-.316-1.2 0-.45.1-.84.3-1.17.2-.33.49-.586.87-.766.38-.18.838-.27 1.372-.27z"/></svg>
