<svg xmlns="http://www.w3.org/2000/svg" viewBox="0 0 24 24" fill="black"><path d="M1.125 0C.502 0 0 .502 0 1.125v21.75C0 23.498.502 24 1.125 24h21.75c.623 0 1.125-.502 1.125-1.125V1.125C24 .502 23.498 0 22.875 0zm11.17 11.41h-2.88v8.376H7.078V11.41H4.2V9.576h8.094zm4.823-1.834c1.607 0 2.86.456 3.555 1.32v.002l-1.44 1.377c-.534-.6-1.122-.87-1.91-.87-.768 0-1.26.324-1.26.852 0 .588.48.78 1.632 1.206 1.728.636 2.736 1.236 2.736 2.904 0 1.836-1.44 3.042-3.492 3.042-1.608 0-2.904-.528-3.78-1.56l1.476-1.38c.66.72 1.356 1.08 2.256 1.08.816 0 1.35-.378 1.35-.924 0-.636-.504-.864-1.596-1.26-1.74-.636-2.772-1.212-2.772-2.868 0-1.704 1.356-2.922 3.246-2.922z"/></svg>
